<svg xmlns="http://www.w3.org/2000/svg" id="Layer_1" data-name="Layer 1" viewBox="0 0 512 512"><defs><style>.cls-1{fill:#cad8dd;}.cls-2{fill:#bdcdd1;}.cls-3{fill:#a1b9bf;}</style></defs><title>moon_style_4</title><circle class="cls-1" cx="256" cy="256" r="217.6"/><path class="cls-2" d="M374.48,73.52A216.51,216.51,0,0,1,409.6,192c0,120.18-97.42,217.6-217.6,217.6A216.5,216.5,0,0,1,73.52,374.48,217.36,217.36,0,0,0,256,473.6c120.18,0,217.6-97.42,217.6-217.6A217.36,217.36,0,0,0,374.48,73.52Z"/><circle class="cls-3" cx="377.6" cy="275.2" r="44.8"/><circle class="cls-3" cx="281.6" cy="140.8" r="38.4"/><circle class="cls-3" cx="179.2" cy="332.8" r="38.4"/><circle class="cls-3" cx="147.2" cy="249.6" r="19.2"/><circle class="cls-3" cx="262.4" cy="339.2" r="19.2"/></svg>
